<?xml version="1.0" encoding="UTF-8"?>
<!--Generator: Apple Native CoreSVG 175-->
<!DOCTYPE svg
PUBLIC "-//W3C//DTD SVG 1.1//EN"
       "http://www.w3.org/Graphics/SVG/1.1/DTD/svg11.dtd">
<svg version="1.1" xmlns="http://www.w3.org/2000/svg" xmlns:xlink="http://www.w3.org/1999/xlink" width="3300" height="2200">
 <!--glyph: "", point size: 100.0, font version: "17.3d3e1", template writer version: "65.1"-->
 <g id="Notes">
  <rect height="2200" id="artboard" style="fill:white;opacity:1" width="3300" x="0" y="0"/>
  <line style="fill:none;stroke:black;opacity:1;stroke-width:0.5;" x1="263" x2="3036" y1="292" y2="292"/>
  <text style="stroke:none;fill:black;font-family:sans-serif;font-size:13;font-weight:bold;" transform="matrix(1 0 0 1 263 322)">Weight/Scale Variations</text>
  <text style="stroke:none;fill:black;font-family:sans-serif;font-size:13;text-anchor:middle;" transform="matrix(1 0 0 1 559.711 322)">Ultralight</text>
  <text style="stroke:none;fill:black;font-family:sans-serif;font-size:13;text-anchor:middle;" transform="matrix(1 0 0 1 856.422 322)">Thin</text>
  <text style="stroke:none;fill:black;font-family:sans-serif;font-size:13;text-anchor:middle;" transform="matrix(1 0 0 1 1153.13 322)">Light</text>
  <text style="stroke:none;fill:black;font-family:sans-serif;font-size:13;text-anchor:middle;" transform="matrix(1 0 0 1 1449.84 322)">Regular</text>
  <text style="stroke:none;fill:black;font-family:sans-serif;font-size:13;text-anchor:middle;" transform="matrix(1 0 0 1 1746.56 322)">Medium</text>
  <text style="stroke:none;fill:black;font-family:sans-serif;font-size:13;text-anchor:middle;" transform="matrix(1 0 0 1 2043.27 322)">Semibold</text>
  <text style="stroke:none;fill:black;font-family:sans-serif;font-size:13;text-anchor:middle;" transform="matrix(1 0 0 1 2339.98 322)">Bold</text>
  <text style="stroke:none;fill:black;font-family:sans-serif;font-size:13;text-anchor:middle;" transform="matrix(1 0 0 1 2636.69 322)">Heavy</text>
  <text style="stroke:none;fill:black;font-family:sans-serif;font-size:13;text-anchor:middle;" transform="matrix(1 0 0 1 2933.4 322)">Black</text>
  <line style="fill:none;stroke:black;opacity:1;stroke-width:0.5;" x1="263" x2="3036" y1="1903" y2="1903"/>
  <g transform="matrix(1 0 0 1 263 1933)">
   <path d="M9.24805 0.830078Q10.8691 0.830078 12.2949 0.214844Q13.7207-0.400391 14.8096-1.49414Q15.8984-2.58789 16.5186-4.01367Q17.1387-5.43945 17.1387-7.05078Q17.1387-8.66211 16.5186-10.0879Q15.8984-11.5137 14.8047-12.6074Q13.7109-13.7012 12.2852-14.3164Q10.8594-14.9316 9.23828-14.9316Q7.62695-14.9316 6.20117-14.3164Q4.77539-13.7012 3.69141-12.6074Q2.60742-11.5137 1.9873-10.0879Q1.36719-8.66211 1.36719-7.05078Q1.36719-5.43945 1.9873-4.01367Q2.60742-2.58789 3.69629-1.49414Q4.78516-0.400391 6.21094 0.214844Q7.63672 0.830078 9.24805 0.830078ZM9.24805-0.654297Q7.91992-0.654297 6.7627-1.14746Q5.60547-1.64062 4.73145-2.51953Q3.85742-3.39844 3.36426-4.56055Q2.87109-5.72266 2.87109-7.05078Q2.87109-8.37891 3.35938-9.54102Q3.84766-10.7031 4.72168-11.582Q5.5957-12.4609 6.75293-12.9541Q7.91016-13.4473 9.23828-13.4473Q10.5762-13.4473 11.7334-12.9541Q12.8906-12.4609 13.7695-11.582Q14.6484-10.7031 15.1465-9.54102Q15.6445-8.37891 15.6445-7.05078Q15.6445-5.72266 15.1514-4.56055Q14.6582-3.39844 13.7842-2.51953Q12.9102-1.64062 11.748-1.14746Q10.5859-0.654297 9.24805-0.654297ZM5.6543-7.05078Q5.6543-6.72852 5.85938-6.52832Q6.06445-6.32812 6.40625-6.32812L8.51562-6.32812L8.51562-4.20898Q8.51562-3.88672 8.71094-3.67676Q8.90625-3.4668 9.23828-3.4668Q9.56055-3.4668 9.77051-3.67676Q9.98047-3.88672 9.98047-4.20898L9.98047-6.32812L12.0898-6.32812Q12.4219-6.32812 12.627-6.52832Q12.832-6.72852 12.832-7.05078Q12.832-7.38281 12.627-7.58789Q12.4219-7.79297 12.0898-7.79297L9.98047-7.79297L9.98047-9.90234Q9.98047-10.2344 9.77051-10.4443Q9.56055-10.6543 9.23828-10.6543Q8.90625-10.6543 8.71094-10.4443Q8.51562-10.2344 8.51562-9.90234L8.51562-7.79297L6.40625-7.79297Q6.06445-7.79297 5.85938-7.58789Q5.6543-7.38281 5.6543-7.05078Z"/>
  </g>
  <g transform="matrix(1 0 0 1 281.867 1933)">
   <path d="M11.709 2.91016Q13.75 2.91016 15.5518 2.12891Q17.3535 1.34766 18.7305-0.0292969Q20.1074-1.40625 20.8887-3.20801Q21.6699-5.00977 21.6699-7.05078Q21.6699-9.0918 20.8887-10.8936Q20.1074-12.6953 18.7305-14.0723Q17.3535-15.4492 15.5469-16.2305Q13.7402-17.0117 11.6992-17.0117Q9.6582-17.0117 7.85645-16.2305Q6.05469-15.4492 4.68262-14.0723Q3.31055-12.6953 2.5293-10.8936Q1.74805-9.0918 1.74805-7.05078Q1.74805-5.00977 2.5293-3.20801Q3.31055-1.40625 4.6875-0.0292969Q6.06445 1.34766 7.86621 2.12891Q9.66797 2.91016 11.709 2.91016ZM11.709 1.25Q9.98047 1.25 8.47656 0.605469Q6.97266-0.0390625 5.83496-1.17676Q4.69727-2.31445 4.05762-3.81836Q3.41797-5.32227 3.41797-7.05078Q3.41797-8.7793 4.05762-10.2832Q4.69727-11.7871 5.83008-12.9297Q6.96289-14.0723 8.4668-14.7119Q9.9707-15.3516 11.6992-15.3516Q13.4277-15.3516 14.9316-14.7119Q16.4355-14.0723 17.5781-12.9297Q18.7207-11.7871 19.3652-10.2832Q20.0098-8.7793 20.0098-7.05078Q20.0098-5.32227 19.3701-3.81836Q18.7305-2.31445 17.5928-1.17676Q16.4551-0.0390625 14.9463 0.605469Q13.4375 1.25 11.709 1.25ZM7.17773-7.05078Q7.17773-6.69922 7.41211-6.47461Q7.64648-6.25 8.01758-6.25L10.8887-6.25L10.8887-3.36914Q10.8887-2.99805 11.1133-2.76855Q11.3379-2.53906 11.6895-2.53906Q12.0605-2.53906 12.29-2.76855Q12.5195-2.99805 12.5195-3.36914L12.5195-6.25L15.4004-6.25Q15.7715-6.25 16.001-6.47461Q16.2305-6.69922 16.2305-7.05078Q16.2305-7.42188 16.001-7.65137Q15.7715-7.88086 15.4004-7.88086L12.5195-7.88086L12.5195-10.752Q12.5195-11.1328 12.29-11.3623Q12.0605-11.5918 11.6895-11.5918Q11.3379-11.5918 11.1133-11.3574Q10.8887-11.123 10.8887-10.752L10.8887-7.88086L8.01758-7.88086Q7.63672-7.88086 7.40723-7.65137Q7.17773-7.42188 7.17773-7.05078Z"/>
  </g>
  <g transform="matrix(1 0 0 1 305.646 1933)">
   <path d="M14.9707 5.66406Q17.0605 5.66406 18.96 5.01465Q20.8594 4.36523 22.4512 3.19336Q24.043 2.02148 25.2197 0.429688Q26.3965-1.16211 27.0459-3.06641Q27.6953-4.9707 27.6953-7.05078Q27.6953-9.14062 27.0459-11.04Q26.3965-12.9395 25.2197-14.5312Q24.043-16.123 22.4512-17.2998Q20.8594-18.4766 18.9551-19.126Q17.0508-19.7754 14.9609-19.7754Q12.8711-19.7754 10.9717-19.126Q9.07227-18.4766 7.48535-17.2998Q5.89844-16.123 4.72168-14.5312Q3.54492-12.9395 2.90039-11.04Q2.25586-9.14062 2.25586-7.05078Q2.25586-4.9707 2.90527-3.06641Q3.55469-1.16211 4.72656 0.429688Q5.89844 2.02148 7.49023 3.19336Q9.08203 4.36523 10.9814 5.01465Q12.8809 5.66406 14.9707 5.66406ZM14.9707 3.84766Q13.1641 3.84766 11.5283 3.2959Q9.89258 2.74414 8.53516 1.74805Q7.17773 0.751953 6.17676-0.610352Q5.17578-1.97266 4.62891-3.6084Q4.08203-5.24414 4.08203-7.05078Q4.08203-8.86719 4.62891-10.5029Q5.17578-12.1387 6.17188-13.501Q7.16797-14.8633 8.52539-15.8594Q9.88281-16.8555 11.5186-17.4023Q13.1543-17.9492 14.9609-17.9492Q16.7773-17.9492 18.4131-17.4023Q20.0488-16.8555 21.4111-15.8594Q22.7734-14.8633 23.7695-13.501Q24.7656-12.1387 25.3174-10.5029Q25.8691-8.86719 25.8691-7.05078Q25.8789-5.24414 25.332-3.6084Q24.7852-1.97266 23.7842-0.610352Q22.7832 0.751953 21.4209 1.74805Q20.0586 2.74414 18.4229 3.2959Q16.7871 3.84766 14.9707 3.84766ZM9.19922-7.05078Q9.19922-6.66992 9.45801-6.4209Q9.7168-6.17188 10.1172-6.17188L14.0625-6.17188L14.0625-2.2168Q14.0625-1.81641 14.3115-1.55762Q14.5605-1.29883 14.9512-1.29883Q15.3516-1.29883 15.6104-1.55273Q15.8691-1.80664 15.8691-2.2168L15.8691-6.17188L19.8242-6.17188Q20.2246-6.17188 20.4785-6.4209Q20.7324-6.66992 20.7324-7.05078Q20.7324-7.46094 20.4785-7.71484Q20.2246-7.96875 19.8242-7.96875L15.8691-7.96875L15.8691-11.9141Q15.8691-12.3242 15.6104-12.583Q15.3516-12.8418 14.9512-12.8418Q14.5605-12.8418 14.3115-12.583Q14.0625-12.3242 14.0625-11.9141L14.0625-7.96875L10.1172-7.96875Q9.70703-7.96875 9.45312-7.71484Q9.19922-7.46094 9.19922-7.05078Z"/>
  </g>
  <text style="stroke:none;fill:black;font-family:sans-serif;font-size:13;font-weight:bold;" transform="matrix(1 0 0 1 263 1953)">Design Variations</text>
  <text style="stroke:none;fill:black;font-family:sans-serif;font-size:13;" transform="matrix(1 0 0 1 263 1971)">Symbols are supported in up to nine weights and three scales.</text>
  <text style="stroke:none;fill:black;font-family:sans-serif;font-size:13;" transform="matrix(1 0 0 1 263 1989)">For optimal layout with text and other symbols, vertically align</text>
  <text style="stroke:none;fill:black;font-family:sans-serif;font-size:13;" transform="matrix(1 0 0 1 263 2007)">symbols with the adjacent text.</text>
  <line style="fill:none;stroke:#00AEEF;stroke-width:0.5;opacity:1.0;" x1="776" x2="776" y1="1919" y2="1933"/>
  <g transform="matrix(1 0 0 1 776 1933)">
   <path d="M3.31055 0.15625Q3.70117 0.15625 3.91602-0.00976562Q4.13086-0.175781 4.26758-0.585938L5.52734-4.0332L11.2891-4.0332L12.5488-0.585938Q12.6855-0.175781 12.9004-0.00976562Q13.1152 0.15625 13.4961 0.15625Q13.8867 0.15625 14.1162-0.0585938Q14.3457-0.273438 14.3457-0.644531Q14.3457-0.869141 14.2383-1.17188L9.6582-13.3691Q9.48242-13.8184 9.17969-14.043Q8.87695-14.2676 8.4082-14.2676Q7.5-14.2676 7.17773-13.3789L2.59766-1.16211Q2.49023-0.859375 2.49023-0.634766Q2.49023-0.263672 2.70996-0.0537109Q2.92969 0.15625 3.31055 0.15625ZM6.00586-5.51758L8.37891-12.0898L8.42773-12.0898L10.8008-5.51758Z"/>
  </g>
  <line style="fill:none;stroke:#00AEEF;stroke-width:0.5;opacity:1.0;" x1="793.197" x2="793.197" y1="1919" y2="1933"/>
  <text style="stroke:none;fill:black;font-family:sans-serif;font-size:13;font-weight:bold;" transform="matrix(1 0 0 1 776 1953)">Margins</text>
  <text style="stroke:none;fill:black;font-family:sans-serif;font-size:13;" transform="matrix(1 0 0 1 776 1971)">Leading and trailing margins on the left and right side of each symbol</text>
  <text style="stroke:none;fill:black;font-family:sans-serif;font-size:13;" transform="matrix(1 0 0 1 776 1989)">can be adjusted by modifying the x-location of the margin guidelines.</text>
  <text style="stroke:none;fill:black;font-family:sans-serif;font-size:13;" transform="matrix(1 0 0 1 776 2007)">Modifications are automatically applied proportionally to all</text>
  <text style="stroke:none;fill:black;font-family:sans-serif;font-size:13;" transform="matrix(1 0 0 1 776 2025)">scales and weights.</text>
  <g transform="matrix(1 0 0 1 1289 1933)">
   <path d="M2.8418 1.86523L4.54102 3.57422Q5.18555 4.22852 5.90332 4.17969Q6.62109 4.13086 7.31445 3.35938L18.0078-8.42773L17.041-9.4043L6.42578 2.27539Q6.16211 2.57812 5.89355 2.61719Q5.625 2.65625 5.27344 2.30469L4.10156 1.14258Q3.75 0.791016 3.79395 0.522461Q3.83789 0.253906 4.14062-0.0195312L15.6152-10.8203L14.6387-11.7871L3.04688-0.898438Q2.30469-0.214844 2.25098 0.498047Q2.19727 1.21094 2.8418 1.86523ZM9.25781-16.3281Q8.94531-16.0254 8.90625-15.6348Q8.86719-15.2441 9.04297-14.9512Q9.21875-14.6777 9.55566-14.541Q9.89258-14.4043 10.3809-14.5215Q11.4746-14.7754 12.5977-14.7314Q13.7207-14.6875 14.7949-13.9844L14.209-12.5293Q13.9551-11.9043 14.0674-11.4404Q14.1797-10.9766 14.5801-10.5664L16.875-8.25195Q17.2363-7.88086 17.5781-7.82227Q17.9199-7.76367 18.3398-7.8418L19.4043-8.03711L20.0684-7.36328L20.0293-6.80664Q20-6.43555 20.1221-6.12305Q20.2441-5.81055 20.6055-5.44922L21.3672-4.70703Q21.7285-4.3457 22.1533-4.33105Q22.5781-4.31641 22.9297-4.66797L25.8398-7.58789Q26.1914-7.93945 26.1816-8.35449Q26.1719-8.76953 25.8105-9.13086L25.0391-9.89258Q24.6875-10.2539 24.3799-10.3857Q24.0723-10.5176 23.7109-10.4883L23.1348-10.4395L22.4902-11.0742L22.7344-12.1973Q22.832-12.6172 22.6953-12.9834Q22.5586-13.3496 22.1191-13.7891L19.9219-15.9766Q18.6719-17.2168 17.2607-17.8369Q15.8496-18.457 14.4189-18.4814Q12.9883-18.5059 11.665-17.959Q10.3418-17.4121 9.25781-16.3281ZM10.752-15.957Q11.6602-16.6211 12.7002-16.9043Q13.7402-17.1875 14.8047-17.085Q15.8691-16.9824 16.8701-16.5137Q17.8711-16.0449 18.7012-15.2051L21.1328-12.793Q21.3086-12.6172 21.3525-12.4512Q21.3965-12.2852 21.3379-12.0312L21.0156-10.5469L22.5195-9.0625L23.5059-9.12109Q23.6914-9.13086 23.7891-9.09668Q23.8867-9.0625 24.0332-8.91602L24.6094-8.33984L22.168-5.89844L21.5918-6.47461Q21.4453-6.62109 21.4062-6.71875Q21.3672-6.81641 21.377-7.01172L21.4453-7.98828L19.9512-9.47266L18.4277-9.21875Q18.1836-9.16992 18.042-9.2041Q17.9004-9.23828 17.7148-9.41406L15.7129-11.416Q15.5176-11.5918 15.4932-11.7529Q15.4688-11.9141 15.5859-12.1875L16.4648-14.2773Q15.293-15.3711 13.8281-15.791Q12.3633-16.2109 10.8398-15.7617Q10.7227-15.7324 10.6885-15.8057Q10.6543-15.8789 10.752-15.957Z"/>
  </g>
  <text style="stroke:none;fill:black;font-family:sans-serif;font-size:13;font-weight:bold;" transform="matrix(1 0 0 1 1289 1953)">Exporting</text>
  <text style="stroke:none;fill:black;font-family:sans-serif;font-size:13;" transform="matrix(1 0 0 1 1289 1971)">Symbols should be outlined when exporting to ensure the</text>
  <text style="stroke:none;fill:black;font-family:sans-serif;font-size:13;" transform="matrix(1 0 0 1 1289 1989)">design is preserved when submitting to Xcode.</text>
  <text id="template-version" style="stroke:none;fill:black;font-family:sans-serif;font-size:13;text-anchor:end;" transform="matrix(1 0 0 1 3036 1933)">Template v.3.0</text>
  <text style="stroke:none;fill:black;font-family:sans-serif;font-size:13;text-anchor:end;" transform="matrix(1 0 0 1 3036 1951)">Requires Xcode 13 or greater</text>
  <text id="descriptive-name" style="stroke:none;fill:black;font-family:sans-serif;font-size:13;text-anchor:end;" transform="matrix(1 0 0 1 3036 1969)">Generated from drill.plus.2</text>
  <text style="stroke:none;fill:black;font-family:sans-serif;font-size:13;text-anchor:end;" transform="matrix(1 0 0 1 3036 1987)">Typeset at 100 points</text>
  <text style="stroke:none;fill:black;font-family:sans-serif;font-size:13;" transform="matrix(1 0 0 1 263 726)">Small</text>
  <text style="stroke:none;fill:black;font-family:sans-serif;font-size:13;" transform="matrix(1 0 0 1 263 1156)">Medium</text>
  <text style="stroke:none;fill:black;font-family:sans-serif;font-size:13;" transform="matrix(1 0 0 1 263 1586)">Large</text>
 </g>
 <g id="Guides">
  <g id="H-reference" style="fill:#27AAE1;stroke:none;" transform="matrix(1 0 0 1 339 696)">
   <path d="M0.993347 0L3.6377 0L29.3282-67.1326L30.0301-67.1326L30.0301-70.459L28.1227-70.459ZM11.6882-24.4797L46.9818-24.4797L46.2311-26.7288L12.4382-26.7288ZM55.1193 0L57.7637 0L30.6381-70.459L29.4327-70.459L29.4327-67.1326Z"/>
  </g>
  <line id="Baseline-S" style="fill:none;stroke:#27AAE1;opacity:1;stroke-width:0.5;" x1="263" x2="3036" y1="696" y2="696"/>
  <line id="Capline-S" style="fill:none;stroke:#27AAE1;opacity:1;stroke-width:0.5;" x1="263" x2="3036" y1="625.541" y2="625.541"/>
  <g id="H-reference" style="fill:#27AAE1;stroke:none;" transform="matrix(1 0 0 1 339 1126)">
   <path d="M0.993347 0L3.6377 0L29.3282-67.1326L30.0301-67.1326L30.0301-70.459L28.1227-70.459ZM11.6882-24.4797L46.9818-24.4797L46.2311-26.7288L12.4382-26.7288ZM55.1193 0L57.7637 0L30.6381-70.459L29.4327-70.459L29.4327-67.1326Z"/>
  </g>
  <line id="Baseline-M" style="fill:none;stroke:#27AAE1;opacity:1;stroke-width:0.5;" x1="263" x2="3036" y1="1126" y2="1126"/>
  <line id="Capline-M" style="fill:none;stroke:#27AAE1;opacity:1;stroke-width:0.5;" x1="263" x2="3036" y1="1055.54" y2="1055.54"/>
  <g id="H-reference" style="fill:#27AAE1;stroke:none;" transform="matrix(1 0 0 1 339 1556)">
   <path d="M0.993347 0L3.6377 0L29.3282-67.1326L30.0301-67.1326L30.0301-70.459L28.1227-70.459ZM11.6882-24.4797L46.9818-24.4797L46.2311-26.7288L12.4382-26.7288ZM55.1193 0L57.7637 0L30.6381-70.459L29.4327-70.459L29.4327-67.1326Z"/>
  </g>
  <line id="Baseline-L" style="fill:none;stroke:#27AAE1;opacity:1;stroke-width:0.5;" x1="263" x2="3036" y1="1556" y2="1556"/>
  <line id="Capline-L" style="fill:none;stroke:#27AAE1;opacity:1;stroke-width:0.5;" x1="263" x2="3036" y1="1485.54" y2="1485.54"/>
  <line id="left-margin-Ultralight-S" style="fill:none;stroke:#00AEEF;stroke-width:0.5;opacity:1.0;" x1="513.349" x2="513.349" y1="600.784" y2="720.121"/>
  <line id="right-margin-Ultralight-S" style="fill:none;stroke:#FF3B30;stroke-width:0.5;opacity:1.0;" x1="606.073" x2="606.073" y1="600.784" y2="720.121"/>
  <line id="left-margin-Regular-S" style="fill:none;stroke:#00AEEF;stroke-width:0.5;opacity:1.0;" x1="1400.28" x2="1400.28" y1="600.784" y2="720.121"/>
  <line id="right-margin-Regular-S" style="fill:none;stroke:#FF3B30;stroke-width:0.5;opacity:1.0;" x1="1499.41" x2="1499.41" y1="600.784" y2="720.121"/>
  <line id="left-margin-Black-S" style="fill:none;stroke:#00AEEF;stroke-width:0.5;opacity:1.0;" x1="2881.11" x2="2881.11" y1="600.784" y2="720.121"/>
  <line id="right-margin-Black-S" style="fill:none;stroke:#FF3B30;stroke-width:0.5;opacity:1.0;" x1="2985.69" x2="2985.69" y1="600.784" y2="720.121"/>
 </g>
 <g id="Symbols">
  <g id="Black-S" transform="matrix(1 0 0 1 2881.11 696)">
   <path d="M24.356 5.811C24.356 7.21 24.828 8.415 25.772 9.424C26.716 10.433 27.985 10.938 29.58 10.938C35.733 10.938 41.56 9.782 47.061 7.471C52.562 5.16 57.437 1.921 61.685-2.246C65.933-6.413 69.27-11.304 71.695-16.919C74.12-22.534 75.333-28.646 75.333-35.254C75.333-39.486 74.291-43.343 72.208-46.826C70.124-50.309 67.341-53.092 63.858-55.176C60.375-57.259 56.517-58.301 52.286-58.301C51.081-58.301 49.893-58.203 48.721-58.008C47.549-57.812 46.394-57.536 45.254-57.178C47.566-60.075 50.276-62.557 53.384-64.624C56.493-66.691 59.886-68.286 63.565-69.409C67.243-70.532 71.052-71.094 74.991-71.094C76.586-71.094 77.855-71.59 78.799-72.583C79.743-73.576 80.215-74.821 80.215-76.318C80.215-77.751 79.743-78.963 78.799-79.956C77.855-80.949 76.586-81.445 74.991-81.445C68.838-81.445 63.012-80.29 57.51-77.979C52.009-75.667 47.134-72.428 42.886-68.262C38.638-64.095 35.302-59.204 32.876-53.589C30.451-47.974 29.239-41.862 29.239-35.254C29.239-31.055 30.28-27.205 32.364-23.706C34.447-20.207 37.238-17.415 40.738-15.332C44.237-13.249 48.086-12.207 52.286-12.207C53.523-12.207 54.727-12.305 55.899-12.5C57.071-12.695 58.21-12.972 59.317-13.33C57.006-10.466 54.296-7.992 51.187-5.908C48.078-3.825 44.693-2.222 41.031-1.099C37.369 0.024 33.552 0.586 29.58 0.586C27.985 0.586 26.716 1.082 25.772 2.075C24.828 3.068 24.356 4.313 24.356 5.811ZM46.231-35.254C46.231-36.882 46.809-38.265 47.964-39.404C49.12-40.544 50.495-41.113 52.09-41.113C53.718-41.113 55.101-40.544 56.241-39.404C57.38-38.265 57.95-36.882 57.95-35.254C57.95-33.659 57.38-32.284 56.241-31.128C55.101-29.972 53.718-29.395 52.09-29.395C50.495-29.395 49.12-29.972 47.964-31.128C46.809-32.284 46.231-33.659 46.231-35.254ZM97.8369 4.846C101.678 4.846 105.178 3.886 108.335 1.965C111.493 0.045 114.024-2.502 115.928-5.676C117.832-8.85 118.784-12.341 118.784-16.15C118.784-19.959 117.832-23.45 115.928-26.624C114.024-29.797 111.493-32.328 108.335-34.216C105.178-36.104 101.678-37.048 97.8369-37.048C94.0289-37.048 90.5379-36.104 87.3639-34.216C84.1899-32.328 81.6509-29.797 79.7469-26.624C77.8419-23.45 76.8899-19.959 76.8899-16.15C76.8899-12.341 77.8419-8.85 79.7469-5.676C81.6509-2.502 84.1899 0.045 87.3639 1.965C90.5379 3.886 94.0289 4.846 97.8369 4.846ZM97.8369-2.087C96.6649-2.087 95.7209-2.445 95.0049-3.162C94.2889-3.878 93.9309-4.806 93.9309-5.945L93.9309-12.195L87.7789-12.195C86.6389-12.195 85.7119-12.553 84.9959-13.269C84.2789-13.985 83.9049-14.929 83.8729-16.101C83.8399-17.273 84.1819-18.217 84.8979-18.933C85.6139-19.649 86.5739-20.007 87.7789-20.007L93.9309-20.007L93.9309-26.111C93.9309-27.25 94.2889-28.178 95.0049-28.894C95.7209-29.61 96.6649-29.985 97.8369-30.017C99.0089-30.05 99.9529-29.708 100.669-28.992C101.386-28.276 101.744-27.315 101.744-26.111L101.744-20.007L107.945-20.007C109.084-20.007 110.012-19.649 110.728-18.933C111.444-18.217 111.802-17.273 111.802-16.101C111.802-14.929 111.444-13.985 110.728-13.269C110.012-12.553 109.084-12.195 107.945-12.195L101.744-12.195L101.744-5.945C101.744-4.806 101.386-3.878 100.669-3.162C99.9529-2.445 99.0089-2.087 97.8369-2.087Z"/>
  </g>
  <g id="Regular-S" transform="matrix(1 0 0 1 1400.28 696)">
   <path d="M24.786 1.758C24.786 2.637 25.103 3.402 25.738 4.053C26.373 4.704 27.162 5.029 28.106 5.029C33.933 5.029 39.353 4.11 44.366 2.271C49.379 0.431 53.765-2.238 57.525-5.737C61.285-9.237 64.215-13.468 66.314-18.433C68.414-23.397 69.464-29.004 69.464-35.254C69.464-38.9 68.56-42.228 66.754-45.239C64.947-48.25 62.538-50.659 59.527-52.466C56.516-54.272 53.188-55.176 49.542-55.176C47.817-55.176 46.14-54.948 44.513-54.492C42.885-54.036 41.371-53.402 39.972-52.588C41.925-56.103 44.447-59.082 47.54-61.523C50.632-63.965 54.172-65.82 58.16-67.09C62.148-68.359 66.436-68.994 71.026-68.994C71.938-68.994 72.719-69.32 73.37-69.971C74.021-70.622 74.347-71.387 74.347-72.266C74.347-73.177 74.021-73.95 73.37-74.585C72.719-75.22 71.938-75.537 71.026-75.537C65.199-75.537 59.779-74.617 54.766-72.778C49.753-70.939 45.367-68.278 41.607-64.795C37.847-61.312 34.918-57.08 32.818-52.1C30.719-47.119 29.669-41.504 29.669-35.254C29.669-31.608 30.572-28.28 32.379-25.269C34.185-22.258 36.594-19.849 39.605-18.042C42.616-16.235 45.929-15.332 49.542-15.332C51.3-15.332 52.992-15.56 54.62-16.016C56.248-16.471 57.761-17.106 59.161-17.92C57.208-14.404 54.677-11.426 51.568-8.984C48.459-6.543 44.911-4.688 40.924-3.418C36.936-2.148 32.664-1.514 28.106-1.514C27.162-1.514 26.373-1.196 25.738-0.562C25.103 0.073 24.786 0.846 24.786 1.758ZM43.78-35.254C43.78-36.849 44.35-38.208 45.489-39.331C46.628-40.454 47.979-41.016 49.542-41.016C51.137-41.016 52.504-40.454 53.643-39.331C54.783-38.208 55.352-36.849 55.352-35.254C55.352-33.691 54.783-32.341 53.643-31.201C52.504-30.062 51.137-29.492 49.542-29.492C47.979-29.492 46.628-30.054 45.489-31.177C44.35-32.3 43.78-33.659 43.78-35.254ZM89.398 3.851C92.946 3.851 96.217 2.956 99.212 1.166C102.207-0.625 104.608-3.009 106.415-5.988C108.222-8.966 109.125-12.246 109.125-15.826C109.125-19.44 108.23-22.736 106.439-25.714C104.649-28.693 102.264-31.069 99.286-32.843C96.307-34.617 93.011-35.504 89.398-35.504C85.817-35.504 82.538-34.617 79.559-32.843C76.58-31.069 74.196-28.693 72.406-25.714C70.615-22.736 69.72-19.44 69.72-15.826C69.72-12.213 70.615-8.917 72.406-5.939C74.196-2.96 76.58-0.584 79.559 1.19C82.538 2.964 85.817 3.851 89.398 3.851ZM89.447-3.571C88.665-3.571 88.047-3.807 87.591-4.279C87.135-4.751 86.908-5.361 86.908-6.11L86.908-13.287L79.73-13.287C78.949-13.287 78.33-13.523 77.874-13.995C77.419-14.467 77.191-15.078 77.191-15.826C77.191-16.575 77.419-17.185 77.874-17.657C78.33-18.129 78.949-18.365 79.73-18.365L86.908-18.365L86.908-25.543C86.908-26.292 87.135-26.902 87.591-27.374C88.047-27.846 88.665-28.082 89.447-28.082C90.195-28.082 90.798-27.846 91.253-27.374C91.709-26.902 91.937-26.292 91.937-25.543L91.937-18.365L99.115-18.365C99.896-18.365 100.514-18.129 100.97-17.657C101.426-17.185 101.654-16.575 101.654-15.826C101.654-15.078 101.426-14.467 100.97-13.995C100.514-13.523 99.896-13.287 99.115-13.287L91.937-13.287L91.937-6.11C91.937-5.361 91.709-4.751 91.253-4.279C90.798-3.807 90.195-3.571 89.447-3.571Z"/>
  </g>
  <g id="Ultralight-S" transform="matrix(1 0 0 1 513.349 696)">
   <path d="M23.784 1.758C23.784 2.092 23.904 2.357 24.146 2.554C24.387 2.751 24.737 2.85 25.197 2.85C30.57 2.85 35.603 1.862 40.299-0.114C44.994-2.089 49.123-4.819 52.686-8.303C56.249-11.787 59.035-15.83 61.044-20.431C63.053-25.032 64.057-29.973 64.057-35.254C64.057-38.476 63.252-41.426 61.642-44.104C60.032-46.782 57.888-48.926 55.21-50.536C52.532-52.146 49.582-52.951 46.36-52.951C43.454-52.951 40.764-52.284 38.289-50.95C35.813-49.616 33.785-47.861 32.204-45.686C33.703-50.624 36.165-55.01 39.59-58.844C43.016-62.678 47.131-65.691 51.936-67.884C56.741-70.077 61.938-71.174 67.526-71.174C67.984-71.174 68.334-71.272 68.577-71.469C68.819-71.666 68.94-71.931 68.94-72.266C68.94-72.602 68.819-72.868 68.577-73.064C68.334-73.26 67.984-73.357 67.526-73.357C62.154-73.357 57.12-72.377 52.425-70.417C47.73-68.457 43.601-65.735 40.038-62.252C36.475-58.769 33.689-54.719 31.68-50.102C29.671-45.484 28.667-40.535 28.667-35.254C28.667-32.032 29.472-29.082 31.082-26.404C32.691-23.726 34.835-21.582 37.513-19.972C40.192-18.362 43.141-17.557 46.36-17.557C49.268-17.557 51.953-18.224 54.413-19.558C56.873-20.891 58.893-22.646 60.475-24.822C58.976-19.914 56.513-15.535 53.086-11.686C49.66-7.837 45.551-4.816 40.762-2.623C35.972-0.43 30.784 0.666 25.197 0.666C24.737 0.666 24.387 0.764 24.146 0.96C23.904 1.156 23.784 1.422 23.784 1.758ZM41.915-35.254C41.915-36.486 42.349-37.535 43.216-38.4C44.083-39.266 45.131-39.699 46.36-39.699C47.592-39.699 48.641-39.266 49.508-38.4C50.375-37.535 50.808-36.486 50.808-35.254C50.808-34.055 50.375-33.014 49.508-32.132C48.641-31.25 47.592-30.809 46.36-30.809C45.131-30.809 44.083-31.249 43.216-32.13C42.349-33.011 41.915-34.053 41.915-35.254ZM80.9124 2.057C84.2654 2.057 87.3254 1.235 90.0924-0.409C92.8594-2.053 95.0724-4.258 96.7334-7.025C98.3934-9.792 99.2234-12.852 99.2234-16.205C99.2234-19.558 98.4014-22.617 96.7574-25.384C95.1134-28.151 92.9084-30.357 90.1414-32.001C87.3744-33.645 84.2984-34.467 80.9124-34.467C77.6254-34.467 74.5894-33.645 71.8064-32.001C69.0234-30.357 66.8014-28.151 65.1414-25.384C63.4814-22.617 62.6514-19.558 62.6514-16.205C62.6514-12.852 63.4814-9.792 65.1414-7.025C66.8014-4.258 69.0234-2.053 71.8064-0.409C74.5894 1.235 77.6254 2.057 80.9124 2.057ZM81.0104-4.291C80.5224-4.291 80.1394-4.437 79.8624-4.73C79.5864-5.023 79.4484-5.398 79.4484-5.853L79.4484-14.642L70.6584-14.642C70.2354-14.642 69.8694-14.781 69.5604-15.057C69.2514-15.334 69.0964-15.716 69.0964-16.205C69.0964-16.693 69.2514-17.076 69.5604-17.352C69.8694-17.629 70.2354-17.767 70.6584-17.767L79.4484-17.767L79.4484-26.508C79.4484-26.931 79.5864-27.297 79.8624-27.606C80.1394-27.915 80.5224-28.07 81.0104-28.07C81.4664-28.07 81.8244-27.915 82.0844-27.606C82.3454-27.297 82.4754-26.931 82.4754-26.508L82.4754-17.767L91.3134-17.767C91.7364-17.767 92.0944-17.629 92.3874-17.352C92.6804-17.076 92.8264-16.693 92.8264-16.205C92.8264-15.716 92.6804-15.334 92.3874-15.057C92.0944-14.781 91.7364-14.642 91.3134-14.642L82.4754-14.642L82.4754-5.853C82.4754-5.398 82.3454-5.023 82.0844-4.73C81.8244-4.437 81.4664-4.291 81.0104-4.291Z"/>
  </g>
 </g>
</svg>
